# xmcd CD database file
# Copyright (C) 1996 Ti Kan
#
# Track frame offsets:
# 	150
# 	13420
# 	30607
# 	47042
# 	60067
# 	74955
# 	89160
# 	105152
# 	122600
# 	138152
#
# Disc length: 2023 seconds
#
# Revision: 1
# Processed by: cddbd v1.4b41PL1 Copyright (c) Steve Scherf et al.
# Submitted via: DiscPlay 3.4.1
#
DISCID=8607e50a
DTITLE=Holly Dunn - Life And Love And All The Stages
DYEAR=1900
DGENRE=
TTITLE0=I Am Who I Am
TTITLE1=It's Not About Blame
TTITLE2=The Wonder Of Love
TTITLE3=Rock-A-Billy
TTITLE4=Lovin' Every Minute
TTITLE5=Cowboys Are My Weakness
TTITLE6=What Kind Of Love
TTITLE7=Love Across The Line
TTITLE8=I'd Know That Heartache Anywhere
TTITLE9=1001 Ways
EXTD=
EXTT0=
EXTT1=
EXTT2=
EXTT3=
EXTT4=
EXTT5=
EXTT6=
EXTT7=
EXTT8=
EXTT9=
PLAYORDER=
